:SAMPLES-PER-SECOND 30
:FULLY-SPECIFIED
:DEGREES
715
root  -41.7613 38.5958 16.9009 -15.1987 67.4605 -11.7637
RightUpLeg  -15.9424 -10.0722 1.35297
RightLeg  25.3881 3.0177 1.36246
RightFoot  -4.74716 -0.0568439 0.419467
RightToes  5.82063e-011 0 -3.6325e-017
Spine  7.86881 -1.45117 16.2354
Spine1  9.39165 0.63306 -0.656779
HEad  12.823 30.1235 -29.2162
LeftShoulder1  0.380863 2.42343 -29.1266
LeftArm  -2.80111 19.6134 -40.3585
LeftForeArm  15.0525 -17.8157 -4.99803
LeftHand  -0.0261485 3.33108 0.557447
RightShoulder  -0.588571 -5.31452 25.7548
RightArm  9.33209 -7.68576 42.4926
RightForeArm  -2.98757 10.9096 5.53907
RightHand  -0.525638 3.14496 -7.34294
LeftUpLeg  -1.19359 -6.0999 5.40349
LeftLeg  56.0192 -8.79981 -13.195
LeftFoot  8.44924 1.30634 -7.88853
LeftToes  2.58842e-009 -1.78069e-010 3.24654e-012
716
root  -40.9641 38.7368 17.5767 -14.9634 69.2083 -11.6628
RightUpLeg  -14.2645 -12.465 0.811701
RightLeg  25.6492 3.58329 1.9305
RightFoot  -6.54951 -0.0479336 0.0739705
RightToes  5.82063e-011 0 -3.6325e-017
Spine  7.95839 -1.04336 16.6614
Spine1  9.4332 1.34743 -0.83654
HEad  11.0539 26.6545 -28.1159
LeftShoulder1  0.393732 2.38408 -29.0652
LeftArm  -0.17665 19.5297 -40.8719
LeftForeArm  15.0997 -20.3928 -4.47413
LeftHand  -0.0166787 3.18284 -0.0336092
RightShoulder  -0.643297 -5.46944 26.0235
RightArm  11.6925 -7.48242 42.7777
RightForeArm  -4.6106 13.815 5.67552
RightHand  -0.684642 3.61107 -9.08872
LeftUpLeg  -6.50104 -4.73882 5.71047
LeftLeg  61.2421 -5.21453 -9.70345
LeftFoot  10.8759 1.41791 -7.48475
LeftToes  2.58842e-009 -1.78069e-010 3.24654e-012
717
root  -40.0877 38.9798 18.2234 -12.8643 70.6298 -9.71399
RightUpLeg  -12.0315 -14.7538 -0.534801
RightLeg  24.8114 4.55425 2.91522
RightFoot  -7.7658 -0.0353248 -0.551823
RightToes  5.82063e-011 0 -3.6325e-017
Spine  7.53761 -0.595574 16.4836
Spine1  9.42484 1.89162 -1.54174
HEad  10.003 25.0065 -27.4808
LeftShoulder1  0.305083 2.64704 -29.4737
LeftArm  1.20398 19.4281 -41.1583
LeftForeArm  15.9009 -22.5987 -4.16727
LeftHand  -0.00449778 2.62031 -0.421529
RightShoulder  -0.615503 -5.4006 25.7266
RightArm  14.1855 -6.69168 43.4349
RightForeArm  -4.86131 16.0339 5.61654
RightHand  -0.678136 4.19714 -8.467
LeftUpLeg  -11.4702 -2.59705 4.91764
LeftLeg  64.0409 -3.49177 -7.20512
LeftFoot  8.37128 0.378888 -2.54944
LeftToes  2.58842e-009 -1.78069e-010 3.24654e-012
718
root  -39.2104 39.2127 18.9004 -9.50797 71.6939 -6.60205
RightUpLeg  -9.99574 -14.8517 -1.84038
RightLeg  23.8204 3.94307 3.01773
RightFoot  -8.80859 -0.0406053 -0.83657
RightToes  5.82063e-011 0 -3.6325e-017
Spine  7.15529 0.0144777 15.8287
Spine1  9.19639 2.59041 -2.57541
HEad  9.38552 22.8312 -26.1701
LeftShoulder1  0.309919 2.62088 -28.9825
LeftArm  0.57305 19.6728 -42.201
LeftForeArm  17.8387 -24.2589 -4.23189
LeftHand  0.0164661 2.21018 -1.11248
RightShoulder  -0.66177 -5.53939 25.8218
RightArm  16.1596 -5.98982 44.1065
RightForeArm  -4.67243 18.7609 5.2365
RightHand  -0.639414 4.09181 -8.08777
LeftUpLeg  -15.517 -0.179174 3.70727
LeftLeg  63.4628 -2.40503 -4.64119
LeftFoot  5.59521 0.488344 -3.4923
LeftToes  2.58842e-009 -1.78069e-010 3.24654e-012
719
root  -38.309 39.3971 19.5114 -6.05618 72.6242 -3.62311
RightUpLeg  -8.15579 -14.8213 -3.01687
RightLeg  22.7727 3.25126 3.12205
RightFoot  -9.93916 -0.0593681 -0.676964
RightToes  5.82063e-011 0 -3.6325e-017
Spine  6.10658 0.560973 15.5628
Spine1  9.58787 3.19115 -3.88505
HEad  8.17261 20.8717 -25.0733
LeftShoulder1  0.346321 2.5112 -28.753
LeftArm  0.401655 19.5024 -42.981
LeftForeArm  18.4154 -25.3554 -4.45724
LeftHand  -0.00294397 1.67189 -0.172229
RightShoulder  -0.663075 -5.55933 25.553
RightArm  17.1649 -4.44834 45.5192
RightForeArm  -4.46626 20.0399 5.15113
RightHand  -0.666963 4.05179 -8.45644
LeftUpLeg  -18.9807 2.02824 2.12022
LeftLeg  60.1609 -2.72965 -4.57942
LeftFoot  3.74607 0.337832 -2.72039
LeftToes  2.58842e-009 -1.78069e-010 3.24654e-012
720
root  -37.3969 39.5502 20.1048 -2.62939 73.5401 -0.415894
RightUpLeg  -5.87932 -15.1718 -4.35543
RightLeg  21.5699 2.96672 3.55527
RightFoot  -11.0499 -0.0727096 -0.591043
RightToes  5.82063e-011 0 -3.6325e-017
Spine  5.91952 1.05191 14.7316
Spine1  8.76171 3.56538 -4.52502
HEad  7.64559 18.8926 -24.1902
LeftShoulder1  0.345074 2.52556 -29.1603
LeftArm  1.02262 19.3858 -42.9494
LeftForeArm  18.4429 -25.9757 -4.59109
LeftHand  -0.00548249 2.17551 -0.244803
RightShoulder  -0.519284 -5.1418 24.888
RightArm  17.5223 -4.58199 46.1058
RightForeArm  -4.96672 22.7156 5.18039
RightHand  -0.683543 3.95218 -8.74418
LeftUpLeg  -21.2529 3.96261 0.193163
LeftLeg  54.3347 -3.70473 -5.05791
LeftFoot  1.5144 0.217995 -2.01554
LeftToes  2.58842e-009 -1.78069e-010 3.24654e-012
721
root  -36.4632 39.6275 20.6489 0.394445 74.7221 2.09546
RightUpLeg  -3.99397 -14.9555 -5.17561
RightLeg  20.5925 1.99724 3.52547
RightFoot  -12.3687 -0.0847454 -0.100391
RightToes  5.82063e-011 0 -3.6325e-017
Spine  5.14631 1.40642 14.0105
Spine1  8.58031 3.68071 -4.91677
HEad  6.24138 17.7269 -23.4084
LeftShoulder1  0.303842 2.64495 -29.2631
LeftArm  1.81676 18.8119 -43.3244
LeftForeArm  18.4814 -25.8234 -4.55584
LeftHand  0.0102265 2.1111 -0.796995
RightShoulder  -0.440907 -4.91412 24.3805
RightArm  16.4748 -4.40981 46.5374
RightForeArm  -3.76682 25.3096 5.60608
RightHand  -0.688528 4.02436 -8.75436
LeftUpLeg  -22.9142 5.69905 -1.60896
LeftLeg  46.3831 -4.63428 -4.80134
LeftFoot  0.474317 0.13771 -1.3713
LeftToes  2.58842e-009 -1.78069e-010 3.24654e-012
722
root  -35.4998 39.6914 21.1203 4.34886 75.9787 5.26614
RightUpLeg  -2.10997 -15.17 -6.16391
RightLeg  19.1019 1.06932 3.75345
RightFoot  -13.4683 -0.0867844 0.246383
RightToes  5.82063e-011 0 -3.6325e-017
Spine  3.75342 1.59548 13.3015
Spine1  8.70591 3.65154 -5.70821
HEad  4.29565 16.3939 -22.9698
LeftShoulder1  0.34471 2.5246 -29.0769
LeftArm  2.01189 18.7487 -43.8618
LeftForeArm  18.1446 -25.3898 -4.4793
LeftHand  -0.000179992 1.79765 -0.312205
RightShoulder  -0.510616 -5.13843 24.4251
RightArm  16.0653 -3.72878 46.6757
RightForeArm  -2.1157 27.3917 6.01755
RightHand  -0.625189 4.51583 -7.59853
LeftUpLeg  -23.6903 7.19469 -3.64643
LeftLeg  36.0489 -4.522 -3.23296
LeftFoot  0.123957 0.184233 -1.83987
LeftToes  2.58842e-009 -1.78069e-010 3.24654e-012
